HIERARCHY
ROOT Hips
{
	OFFSET 0.00000 0.00000 0.00000
	CHANNELS 6 Xposition Yposition Zposition Zrotation Yrotation Xrotation 
	JOINT LHipJoint
	{
		OFFSET 0 0 0
		CHANNELS 3 Zrotation Yrotation Xrotation
		JOINT LeftUpLeg
		{
			OFFSET 1.30186 -1.90722 0.65024
			CHANNELS 3 Zrotation Yrotation Xrotation
			JOINT LeftLeg
			{
				OFFSET 2.56413 -7.04489 0.00000
				CHANNELS 3 Zrotation Yrotation Xrotation
				JOINT LeftFoot
				{
					OFFSET 2.79321 -7.67428 0.00000
					CHANNELS 3 Zrotation Yrotation Xrotation
					JOINT LeftToeBase
					{
						OFFSET 0.15723 -0.43198 2.08537
						CHANNELS 3 Zrotation Yrotation Xrotation
						End Site
						{
							OFFSET 0.00000 -0.00000 1.07411
						}
					}
				}
			}
		}
	}
	JOINT RHipJoint
	{
		OFFSET 0 0 0
		CHANNELS 3 Zrotation Yrotation Xrotation
		JOINT RightUpLeg
		{
			OFFSET -1.28627 -1.90723 0.65024
			CHANNELS 3 Zrotation Yrotation Xrotation
			JOINT RightLeg
			{
				OFFSET -2.56567 -7.04913 0.00000
				CHANNELS 3 Zrotation Yrotation Xrotation
				JOINT RightFoot
				{
					OFFSET -2.75597 -7.57198 0.00000
					CHANNELS 3 Zrotation Yrotation Xrotation
					JOINT RightToeBase
					{
						OFFSET -0.17500 -0.48081 2.22901
						CHANNELS 3 Zrotation Yrotation Xrotation
						End Site
						{
							OFFSET -0.00000 -0.00000 1.14762
						}
					}
				}
			}
		}
	}
	JOINT LowerBack
	{
		OFFSET 0 0 0
		CHANNELS 3 Zrotation Yrotation Xrotation
		JOINT Spine
		{
			OFFSET -0.04522 2.07467 -0.16566
			CHANNELS 3 Zrotation Yrotation Xrotation
			JOINT Spine1
			{
				OFFSET -0.01178 2.08825 -0.05393
				CHANNELS 3 Zrotation Yrotation Xrotation
				JOINT Neck
				{
					OFFSET 0 0 0
					CHANNELS 3 Zrotation Yrotation Xrotation
					JOINT Neck1
					{
						OFFSET -0.05182 1.80489 0.16014
						CHANNELS 3 Zrotation Yrotation Xrotation
						JOINT Head
						{
							OFFSET 0.14739 1.78840 -0.33342
							CHANNELS 3 Zrotation Yrotation Xrotation
							End Site
							{
								OFFSET 0.04364 1.83899 -0.13460
							}
						}
					}
				}
				JOINT LeftShoulder
				{
					OFFSET 0 0 0
					CHANNELS 3 Zrotation Yrotation Xrotation
					JOINT LeftArm
					{
						OFFSET 3.01264 1.29090 -0.06579
						CHANNELS 3 Zrotation Yrotation Xrotation
						JOINT LeftForeArm
						{
							OFFSET 5.55680 -0.00000 0.00000
							CHANNELS 3 Zrotation Yrotation Xrotation
							JOINT LeftHand
							{
								OFFSET 3.63979 -0.00000 -0.00000
								CHANNELS 3 Zrotation Yrotation Xrotation
								JOINT LeftFingerBase
								{
									OFFSET 0 0 0
									CHANNELS 3 Zrotation Yrotation Xrotation
									JOINT LeftHandIndex1
									{
										OFFSET 0.56942 -0.00000 -0.00000
										CHANNELS 3 Zrotation Yrotation Xrotation
										End Site
										{
											OFFSET 0.45908 -0.00000 -0.00000
										}
									}
								}
								JOINT LThumb
								{
									OFFSET 0 0 0
									CHANNELS 3 Zrotation Yrotation Xrotation
									End Site
									{
										OFFSET 0.46609 -0.00000 0.46609
									}
								}
							}
						}
					}
				}
				JOINT RightShoulder
				{
					OFFSET 0 0 0
					CHANNELS 3 Zrotation Yrotation Xrotation
					JOINT RightArm
					{
						OFFSET -3.15796 1.37283 -0.36748
						CHANNELS 3 Zrotation Yrotation Xrotation
						JOINT RightForeArm
						{
							OFFSET -5.34339 -0.00000 0.00000
							CHANNELS 3 Zrotation Yrotation Xrotation
							JOINT RightHand
							{
								OFFSET -3.65101 -0.00000 -0.00000
								CHANNELS 3 Zrotation Yrotation Xrotation
								JOINT RightFingerBase
								{
									OFFSET 0 0 0
									CHANNELS 3 Zrotation Yrotation Xrotation
									JOINT RightHandIndex1
									{
										OFFSET -0.69425 -0.00000 -0.00000
										CHANNELS 3 Zrotation Yrotation Xrotation
										End Site
										{
											OFFSET -0.55972 -0.00000 -0.00000
										}
									}
								}
								JOINT RThumb
								{
									OFFSET 0 0 0
									CHANNELS 3 Zrotation Yrotation Xrotation
									End Site
									{
										OFFSET -0.56827 -0.00000 0.56827
									}
								}
							}
						}
					}
				}
			}
		}
	}
}
MOTION
Frames: 15
Frame Time: .0083333
1.7777 18.7346 28.5166 0 0 0 0 0 0 -21 0 0 0 0 0 0 0 0 0 0 0 0 0 0 21 0 0 0 0 0 0 0 0 0 0 0 0 0 0 0 0 0 0 0 0 0 0 -16 0 0 21 0 0 11 0 0 0 -8 0 0 0 0 0 0 0 0 0 0 0 0 0 0 0 0 0 0 0 0 8 0 0 0 0 0 0 0 0 0 0 0 0 0 0 0 0 0
1.7777 18.7346 28.5166 -176.7960 -0.9491 -173.9020 0.0000 0.0000 0.0000 -14.1395 -4.7190 -29.3468 7.9093 16.0522 52.2354 0.5812 0.0614 -14.4283 0.8105 -5.7451 -16.0465 0.0000 0.0000 0.0000 26.9766 10.2379 -6.6067 -2.4919 -9.8232 28.4059 -0.7062 -0.2690 -15.9799 -0.0302 1.1224 -3.0856 2.4454 1.2144 3.4051 1.5222 1.5608 2.2201 0.1435 0.7425 0.3943 -3.7203 -4.9037 -14.3031 1.8132 -6.5021 16.6460 0.4867 -3.2551 7.6673 0.0000 0.0000 0.0000 -89.7090 7.6096 2.4328 9.1259 -15.3609 -1.2333 -0.0000 -0.0000 13.6350 19.3626 13.8691 4.8151 -7.1250 0.0000 -0.0000 -7.4577 44.5162 0.0896 0.0000 0.0000 0.0000 84.3754 -5.0978 6.9759 -15.0689 24.2420 -3.2542 0.0000 0.0000 6.1952 -26.1857 30.8883 -14.1682 7.1250 -0.0000 -0.0000 2.9495 3.6689 3.1363
1.7643 18.7457 28.3542 -176.6390 -0.3738 -173.7230 0.0000 0.0000 0.0000 -13.9170 -5.1840 -29.7793 7.3030 15.5818 50.0112 0.6357 0.2767 -15.1685 0.7067 -5.3729 -14.9753 0.0000 0.0000 0.0000 27.1353 10.4217 -5.8510 -2.4220 -9.6946 27.9934 -0.7331 0.3768 -16.0577 -0.0053 -0.4721 1.2971 2.6146 1.4809 3.4452 1.3572 1.9296 2.1681 -0.1322 0.9314 0.3360 -3.5023 -4.8868 -14.3133 1.8623 -6.5235 16.5275 0.4671 -3.2444 7.6247 -0.0000 0.0000 0.0000 -89.4583 8.0470 1.3994 9.0206 -15.1933 -1.2055 -0.0000 -0.0000 13.9839 19.2085 12.3892 4.2749 -7.1250 0.0000 -0.0000 -7.2952 42.9575 0.3698 -0.0000 0.0000 0.0000 84.4688 -4.8965 6.5486 -15.2667 24.5163 -3.3358 0.0000 0.0000 5.9222 -26.4062 30.3717 -14.0931 7.1250 -0.0000 -0.0000 2.7362 3.1832 2.8872
1.7464 18.7668 28.1968 -176.3690 0.4020 -173.5020 0.0000 0.0000 0.0000 -13.5539 -5.6061 -30.2234 6.7153 15.0874 47.7893 0.7738 0.3500 -16.7548 0.3084 -3.5703 -9.8709 0.0000 0.0000 0.0000 27.2412 9.9296 -5.3043 -2.2801 -9.4266 27.1392 -0.6864 1.4326 -15.2288 -0.0182 -0.8720 2.3966 2.8134 1.5165 3.3334 1.3606 2.2196 2.2272 -0.2426 1.1835 0.4683 -3.6643 -4.8126 -14.3307 1.9860 -6.3841 16.2769 0.5524 -3.1709 7.5513 0.0000 0.0000 0.0000 -89.6683 8.3043 -0.0034 8.9354 -15.0574 -1.1833 -0.0000 -0.0000 14.3581 19.9040 13.6748 4.8925 -7.1250 0.0000 -0.0000 -6.9238 44.3768 0.1070 0.0000 0.0000 0.0000 84.1607 -4.4590 6.4344 -15.4181 24.7253 -3.3989 0.0000 0.0000 5.6810 -26.6652 30.4197 -14.2664 7.1250 -0.0000 -0.0000 2.5966 3.2962 2.7444
1.7296 18.7854 28.0264 -176.1150 0.7292 -173.6360 0.0000 0.0000 0.0000 -13.1707 -6.1881 -30.1549 6.1303 14.5535 45.5026 0.7482 1.3705 -16.8917 0.7201 -5.4225 -15.1176 0.0000 0.0000 0.0000 27.4342 8.9852 -4.3748 -2.1431 -9.1580 26.2909 -0.6764 2.1734 -14.9480 -0.0190 -0.8892 2.4440 2.9402 1.3567 3.3832 1.5707 2.0292 2.4869 -0.0893 1.1033 0.6989 -4.2555 -4.6508 -14.7160 2.0989 -6.0174 16.2499 0.7171 -3.0116 7.6222 0.0000 -0.0000 0.0000 -90.3723 8.4182 -2.1439 8.8254 -14.8818 -1.1549 -0.0000 -0.0000 14.9686 20.0417 13.7559 4.9576 -7.1250 0.0000 -0.0000 -6.8151 44.4778 0.0883 0.0000 -0.0000 0.0000 83.3647 -3.8157 7.1132 -15.5535 24.9115 -3.4557 0.0000 0.0000 5.4111 -26.4890 31.0809 -14.4275 7.1250 -0.0000 -0.0000 2.8107 3.9434 3.0009
1.7163 18.8027 27.8490 -176.0480 0.9121 -173.6170 0.0000 0.0000 0.0000 -12.9455 -6.7945 -30.1601 5.5439 13.9713 43.1225 0.6998 1.8039 -16.5552 0.6914 -5.3155 -14.8107 0.0000 0.0000 0.0000 27.5087 8.5575 -3.2886 -1.9888 -8.8427 25.3046 -0.6651 2.3244 -14.7890 -0.0237 -0.9949 2.7346 2.9139 1.5037 3.4155 1.4843 2.2340 2.7835 -0.1623 1.2182 0.9928 -3.9848 -4.8057 -15.9438 2.0231 -6.2070 16.5805 0.5956 -3.0686 7.9413 -0.0000 -0.0000 0.0000 -90.2305 8.2145 -3.0807 8.6805 -14.6498 -1.1179 -0.0000 -0.0000 15.4634 18.5326 11.5922 3.8538 -7.1250 0.0000 -0.0000 -7.7444 42.0596 0.5655 -0.0000 -0.0000 0.0000 83.2272 -2.9874 6.7849 -15.6996 25.1116 -3.5175 0.0000 0.0000 5.2322 -25.7880 32.0170 -14.3678 7.1250 -0.0000 -0.0000 3.3689 4.7442 3.6421
1.7023 18.8175 27.6814 -175.8250 1.1544 -173.5260 0.0000 0.0000 0.0000 -12.5110 -7.4069 -30.1956 4.9535 13.3312 40.6213 0.6553 2.4967 -16.3975 0.5635 -4.8078 -13.3610 0.0000 0.0000 0.0000 27.7782 8.5062 -2.2088 -1.8309 -8.5047 24.2578 -0.6225 2.0907 -14.3359 -0.0061 -0.5040 1.3848 3.0290 1.6206 3.4254 1.4943 2.3989 2.8873 -0.2175 1.3080 1.1024 -3.8429 -4.8985 -16.3153 1.8584 -6.3146 16.6632 0.4963 -3.1194 8.0268 0.0000 0.0000 0.0000 -90.2591 8.4705 -3.6218 8.6666 -14.6275 -1.1144 -0.0000 -0.0000 15.4927 18.4388 10.8818 3.6015 -7.1250 0.0000 -0.0000 -7.6959 41.3128 0.7046 0.0000 0.0000 0.0000 82.9854 -2.4160 6.4081 -15.8272 25.2857 -3.5718 0.0000 0.0000 4.8763 -25.5497 32.5655 -14.4298 7.1250 -0.0000 -0.0000 3.5984 5.2528 3.9202
1.6885 18.8253 27.5142 -175.4420 1.2741 -173.5740 0.0000 0.0000 0.0000 -11.8974 -8.1311 -29.9590 4.3453 12.6063 37.9119 0.5719 3.7711 -16.1570 0.6965 -5.3349 -14.8663 0.0000 0.0000 0.0000 28.2441 8.3223 -1.0756 -1.7028 -8.2174 23.3765 -0.5979 1.8994 -14.0791 -0.0008 -0.1769 0.4860 3.4012 1.8585 3.3149 1.4869 2.7012 2.2733 -0.4505 1.4364 0.5596 -3.7462 -4.8867 -13.0410 1.8452 -6.4893 15.6852 0.5481 -3.2583 7.1338 0.0000 -0.0000 0.0000 -90.0266 10.5324 -2.9655 8.7715 -14.7956 -1.1411 -0.0000 -0.0000 14.7732 20.6853 12.7316 4.7567 -7.1250 0.0000 -0.0000 -6.0319 43.4757 0.2278 0.0000 -0.0000 0.0000 82.9753 -3.8840 6.0385 -16.2151 25.8114 -3.7391 0.0000 0.0000 4.0242 -26.0899 31.9363 -14.5220 7.1250 -0.0000 -0.0000 3.1855 4.7346 3.4427
1.6710 18.8312 27.3424 -175.1970 1.5461 -173.4160 0.0000 0.0000 0.0000 -11.4660 -8.8373 -29.8782 3.7610 11.8355 35.1524 0.4135 5.2786 -15.2353 1.0015 -6.3684 -17.8572 0.0000 0.0000 0.0000 28.4183 8.0073 -0.2283 -1.5803 -7.9309 22.5044 -0.5567 2.0751 -13.5348 -0.0006 -0.1645 0.4520 3.5654 1.8654 3.1911 1.5618 2.7185 2.5252 -0.4536 1.4610 0.8921 -4.0072 -4.8341 -14.1224 2.0555 -6.3248 15.8134 0.6481 -3.1519 7.3753 0.0000 0.0000 0.0000 -90.3207 10.4305 -3.6442 8.7063 -14.6912 -1.1245 -0.0000 -0.0000 14.6253 21.9291 13.6011 5.4082 -7.1250 0.0000 -0.0000 -5.0597 44.5384 0.0578 0.0000 0.0000 0.0000 82.4541 -3.0962 6.2864 -16.4113 26.0752 -3.8250 0.0000 0.0000 3.1762 -24.8729 32.0881 -13.8354 7.1250 -0.0000 -0.0000 3.8943 4.5976 4.2033
1.6509 18.8278 27.1702 -174.9730 1.8979 -173.3280 0.0000 0.0000 0.0000 -11.1662 -9.2701 -29.7518 3.2122 11.0309 32.3841 0.2154 6.6292 -13.6048 1.3467 -7.3470 -20.7477 0.0000 0.0000 0.0000 28.4703 7.3810 0.5906 -1.4560 -7.6268 21.5861 -0.5010 2.6176 -12.7286 -0.0003 -0.1132 0.3109 3.7055 1.9226 3.0976 1.5878 2.8026 2.7982 -0.4945 1.5202 1.2335 -4.3210 -4.7860 -15.3619 2.5164 -6.2165 16.2889 0.8271 -3.0546 7.7708 -0.0000 0.0000 0.0000 -90.4807 10.3438 -4.1207 8.6651 -14.6251 -1.1140 -0.0000 -0.0000 14.3706 21.1572 13.0905 5.0095 -7.1250 0.0000 -0.0000 -5.6704 43.9073 0.1534 -0.0000 0.0000 0.0000 82.0805 -2.2167 6.0627 -16.4848 26.1736 -3.8573 0.0000 0.0000 2.8234 -24.2004 32.7431 -13.6626 7.1250 -0.0000 -0.0000 4.3807 5.1125 4.7671
1.6307 18.8458 26.9956 -174.8360 2.2019 -173.2780 0.0000 0.0000 0.0000 -10.7323 -9.9903 -29.2807 2.7232 10.2328 29.7340 0.2282 7.2024 -14.3886 1.4080 -7.5054 -21.2216 0.0000 0.0000 0.0000 28.4276 6.6840 1.4748 -1.3309 -7.3053 20.6231 -0.4673 3.1775 -12.2153 -0.0003 0.1039 -0.2854 3.7797 1.8497 3.1859 1.6074 2.7173 2.9070 -0.5149 1.4846 1.2956 -4.6220 -4.6740 -16.2411 2.6626 -6.0141 17.0559 0.9206 -2.9555 8.1882 0.0000 -0.0000 0.0000 -90.8004 10.5318 -5.3873 8.6890 -14.6634 -1.1201 -0.0000 -0.0000 14.5760 20.4340 13.2255 4.8720 -7.1250 0.0000 -0.0000 -6.3524 43.9670 0.1626 0.0000 -0.0000 0.0000 81.6495 -1.5455 5.9898 -16.5099 26.2072 -3.8684 0.0000 0.0000 2.7932 -25.4850 32.5989 -14.4023 7.1250 -0.0000 -0.0000 3.6403 5.2715 3.9671
1.6105 18.8606 26.8201 -174.7450 2.4696 -173.0770 0.0000 0.0000 0.0000 -10.2696 -10.8806 -28.9401 2.2774 9.4214 27.1227 0.2294 7.6368 -14.8615 1.0579 -6.5397 -18.3587 0.0000 0.0000 0.0000 28.3187 6.0761 2.1728 -1.2116 -6.9827 19.6641 -0.4377 3.6122 -11.7832 -0.0037 0.3924 -1.0782 3.8849 2.1155 3.0626 1.4373 3.0409 2.2373 -0.7670 1.6122 0.7034 -4.2413 -4.7483 -13.5271 2.4100 -6.3186 16.3093 0.8078 -3.1562 7.4531 -0.0000 -0.0000 0.0000 -90.4881 12.2880 -5.5560 8.7791 -14.8078 -1.1430 -0.0000 -0.0000 14.5543 20.4961 14.5229 5.3552 -7.1250 0.0000 -0.0000 -6.5589 45.3362 -0.0547 -0.0000 -0.0000 0.0000 81.6788 -2.8770 5.6391 -16.8658 26.6805 -4.0269 0.0000 0.0000 2.0303 -25.2769 32.4147 -14.2045 7.1250 -0.0000 -0.0000 3.7241 5.0310 4.0446
1.5924 18.8682 26.6422 -174.6630 2.7654 -172.9730 0.0000 0.0000 0.0000 -9.8245 -11.8155 -28.5863 1.9001 8.6548 24.7214 0.1916 8.2314 -14.9617 0.8638 -5.9264 -16.5711 0.0000 0.0000 0.0000 28.2052 5.6049 3.1093 -1.0840 -6.6173 18.5865 -0.3786 3.9267 -10.9403 -0.0047 0.4409 -1.2114 3.8803 2.2903 2.9813 1.3559 3.2625 2.1031 -0.8520 1.7158 0.6249 -4.1455 -4.8806 -12.8125 2.4120 -6.5433 15.9169 0.7908 -3.2680 7.2045 0.0000 -0.0000 0.0000 -90.3816 12.9452 -5.6032 8.8145 -14.8643 -1.1521 -0.0000 -0.0000 14.2239 21.0047 15.8712 5.9943 -7.1250 0.0000 -0.0000 -6.3837 46.8171 -0.2874 0.0000 -0.0000 0.0000 81.4618 -3.0949 5.6779 -17.3003 27.2519 -4.2239 0.0000 0.0000 0.6744 -24.5263 31.7017 -13.4835 7.1250 -0.0000 -0.0000 4.0247 4.1179 4.3137
1.5716 18.8660 26.4614 -174.6570 3.2114 -172.9260 0.0000 0.0000 0.0000 -9.4771 -12.6233 -28.1586 1.5683 7.9022 22.4175 0.1868 8.5620 -15.2663 0.6836 -5.2864 -14.7271 0.0000 0.0000 0.0000 27.9477 5.1018 4.1250 -0.9703 -6.2712 17.5735 -0.3166 4.3634 -10.0249 -0.0202 0.9180 -2.5232 3.7308 2.3546 2.8710 1.3379 3.3446 2.4603 -0.7717 1.7724 1.0495 -4.2857 -4.8933 -14.1723 2.5393 -6.4834 16.3700 0.8233 -3.2090 7.5980 -0.0000 0.0000 0.0000 -90.5546 12.6116 -5.8541 8.7929 -14.8298 -1.1465 -0.0000 -0.0000 13.8626 20.9486 15.2467 5.7490 -7.1250 0.0000 -0.0000 -6.2960 46.1538 -0.1800 -0.0000 0.0000 0.0000 81.0233 -2.1673 5.7349 -17.6071 27.6511 -4.3654 0.0000 -0.0000 -0.3884 -24.2299 31.5091 -13.2359 7.1250 -0.0000 -0.0000 4.1607 3.8510 4.4421
1.5516 18.8627 26.2777 -174.5470 3.5660 -172.8310 0.0000 0.0000 0.0000 -8.9929 -13.3738 -27.7349 1.2762 7.1596 20.1891 0.2063 8.6463 -15.6368 0.5488 -4.7459 -13.1851 0.0000 0.0000 0.0000 27.8247 4.6321 5.0180 -0.8783 -5.9748 16.7114 -0.2801 4.8141 -9.4944 -0.0177 0.8601 -2.3640 3.7674 2.4931 2.4714 1.3184 3.4947 2.0206 -0.8080 1.8277 0.8310 -4.4316 -4.7198 -11.8737 2.6805 -6.3875 15.8182 0.9622 -3.2110 7.0218 0.0000 0.0000 0.0000 -90.5546 14.2111 -5.2911 8.9050 -15.0089 -1.1754 -0.0000 -0.0000 13.1365 20.1985 13.5074 4.9114 -7.1250 0.0000 -0.0000 -6.6219 44.2358 0.1255 0.0000 0.0000 0.0000 80.7005 -3.1599 5.7800 -17.9362 28.0754 -4.5192 0.0000 -0.0000 -1.1641 -24.2439 32.4362 -13.5793 7.1250 -0.0000 -0.0000 4.3049 4.8078 4.6633
